P2
10 10
255
255 120 121 114 255 118 117 117 255 117
111 120 255 114 120 118 255 117 117 117
255 120 121 114 255 118 117 117 255 117
111 120 255 114 120 118 255 117 117 117
255 120 121 114 255 118 117 117 255 117
111 120 255 114 120 118 255 117 117 117
255 120 121 114 255 118 117 117 255 117
111 120 255 114 120 118 255 117 117 117
255 120 121 114 255 118 117 117 255 117
111 120 255 114 120 118 255 117 117 117
