P2
5 5
255
255 121 255 117 255 
255 121 255 117 255 
255 121 255 117 255 
255 121 255 117 255 
255 121 255 117 255 
